<?xml version="1.0" encoding="UTF-8"?>
<svg width="24px" height="24px" viewBox="0 0 24 24" version="1.1" xmlns="http://www.w3.org/2000/svg" xmlns:xlink="http://www.w3.org/1999/xlink">
    <!-- Generator: Sketch 40.1 (33804) - http://www.bohemiancoding.com/sketch -->
    <title>Artboard 10 Copy 4</title>
    <desc>Created with Sketch.</desc>
    <defs>
        <rect id="path-1" x="0" y="0" width="24" height="24"></rect>
        <path d="M14.9018033,25.8011881 C15.9177775,25.6935056 16.9349095,25.4190316 17.9150288,24.9640754 C22.6424977,22.7696574 24.7186753,17.2073359 22.5523013,12.5402827 C21.1044685,9.42119375 18.1281051,7.4913563 14.9018033,7.20936668 L14.9018033,4.019133 C14.9018033,3.88360908 14.7862805,3.76693069 14.6437759,3.76693069 L13.9575281,3.76693069 L13.3540667,3.76693069 C13.2069136,3.76693069 13.1020104,3.87984551 13.1020104,4.019133 L13.1020104,7.22408484 C12.0797552,7.33035494 11.0560884,7.60540452 10.0698945,8.06318046 C5.34242562,10.2575985 3.26624798,15.81992 5.43262198,20.4869732 C6.88328016,23.6121488 9.86844017,25.5434269 13.1020104,25.8195212 L13.1020104,29.0210464 C13.1020104,29.1565703 13.2140527,29.2732487 13.3522639,29.2732487 L14.6515498,29.2732487 C14.7837138,29.2732487 14.9018033,29.1603339 14.9018033,29.0210464 L14.9018033,25.8011881 Z M17.0669679,23.127075 C20.7690598,21.4086212 22.3949193,17.0527543 20.6984268,13.3979741 C19.0019343,9.74319383 14.6255169,8.17349112 10.923425,9.89194495 C7.22133315,11.6103988 5.59547362,15.9662657 7.29196613,19.6210459 C8.98845864,23.2758262 13.364876,24.8455289 17.0669679,23.127075 Z" id="path-3"></path>
    </defs>
    <g id="Page-1" stroke="none" stroke-width="1" fill="none" fill-rule="evenodd">
        <g id="Artboard-10-Copy-4">
            <g id="O">
                <mask id="mask-2" fill="white">
                    <use xlink:href="#path-1"></use>
                </mask>
                <use id="Mask" fill-opacity="0" fill="#FFFFFF" xlink:href="#path-1"></use>
                <g mask="url(#mask-2)">
                    <g transform="translate(-2.000000, -4.500000)">
                        <mask id="mask-4" fill="white">
                            <use xlink:href="#path-3"></use>
                        </mask>
                        <use id="Combined-Shape" stroke="none" fill="#FFFFFF" fill-rule="evenodd" transform="translate(13.992462, 16.520090) rotate(24.800000) translate(-13.992462, -16.520090) " xlink:href="#path-3"></use>
                    </g>
                </g>
            </g>
        </g>
    </g>
</svg>